<svg width="21" height="21" viewBox="0 0 21 21" fill="none" xmlns="http://www.w3.org/2000/svg">
<path fill-rule="evenodd" clip-rule="evenodd" d="M10.5938 0.594971C5.07803 0.594971 0.595001 5.07811 0.595001 10.5961C0.595001 16.1119 5.07803 20.595 10.5938 20.595C16.1119 20.595 20.595 16.1119 20.595 10.5961C20.595 5.07812 16.1119 0.594971 10.5938 0.594971V0.594971ZM10.5938 1.51652C15.6138 1.51652 19.6734 5.57617 19.6734 10.5961C19.6734 15.6137 15.6138 19.6734 10.5938 19.6734C5.57629 19.6734 1.51655 15.6137 1.51655 10.5961C1.51655 5.57618 5.57629 1.51652 10.5938 1.51652V1.51652Z" fill="black"/>
<path fill-rule="evenodd" clip-rule="evenodd" d="M6.48372 12.324C6.41106 12.324 6.33943 12.3412 6.27468 12.3742C6.20993 12.4072 6.1539 12.455 6.11115 12.5138C6.06841 12.5725 6.04016 12.6406 6.02872 12.7123C6.01729 12.7841 6.02298 12.8575 6.04534 12.9267C6.75369 15.1159 8.49833 16.7314 10.5938 16.7314C12.6914 16.7314 14.4364 15.1159 15.1447 12.9267C15.1671 12.8575 15.1728 12.7841 15.1613 12.7123C15.1499 12.6405 15.1217 12.5725 15.0789 12.5137C15.0361 12.455 14.9801 12.4072 14.9153 12.3742C14.8506 12.3412 14.7789 12.324 14.7063 12.324H6.48372V12.324ZM7.15392 13.2456H14.0361C13.335 14.8046 12.0365 15.8098 10.5938 15.8098C9.15353 15.8098 7.85509 14.8046 7.15392 13.2456Z" fill="black"/>
<path fill-rule="evenodd" clip-rule="evenodd" d="M7.15719 5.41019C7.09144 5.41174 7.02677 5.42734 6.96755 5.45595C6.90833 5.48456 6.85592 5.52551 6.81384 5.57606L5.22416 7.48599C5.18435 7.53235 5.15415 7.58617 5.13533 7.64431C5.11652 7.70246 5.10945 7.76377 5.11455 7.82467C5.11965 7.88557 5.13682 7.94484 5.16505 7.99905C5.19327 8.05325 5.232 8.1013 5.27897 8.1404C5.32595 8.17949 5.38023 8.20886 5.43866 8.22678C5.49708 8.2447 5.55849 8.25082 5.61931 8.24478C5.68012 8.23874 5.73913 8.22066 5.79289 8.19159C5.84666 8.16253 5.8941 8.12307 5.93247 8.0755L7.16799 6.59107L8.40352 8.0755C8.44189 8.12307 8.48933 8.16253 8.54309 8.19159C8.59686 8.22066 8.65586 8.23874 8.71668 8.24478C8.77749 8.25082 8.8389 8.2447 8.89733 8.22678C8.95576 8.20886 9.01004 8.17949 9.05701 8.1404C9.10399 8.1013 9.14271 8.05325 9.17094 7.99905C9.19917 7.94484 9.21633 7.88557 9.22143 7.82467C9.22653 7.76377 9.21947 7.70246 9.20065 7.64431C9.18184 7.58617 9.15164 7.53235 9.11183 7.48599L7.52215 5.57606C7.47774 5.52271 7.42185 5.48009 7.35865 5.45136C7.29545 5.42264 7.22659 5.40857 7.15719 5.41019V5.41019Z" fill="black"/>
<path fill-rule="evenodd" clip-rule="evenodd" d="M14.0112 5.41019C13.9455 5.41174 13.8808 5.42734 13.8216 5.45595C13.7624 5.48456 13.71 5.52551 13.6679 5.57606L12.0782 7.48599C12.0384 7.53235 12.0082 7.58617 11.9894 7.64431C11.9706 7.70246 11.9635 7.76377 11.9686 7.82467C11.9737 7.88557 11.9909 7.94484 12.0191 7.99905C12.0473 8.05325 12.0861 8.1013 12.133 8.1404C12.18 8.17949 12.2343 8.20886 12.2927 8.22678C12.3511 8.2447 12.4125 8.25082 12.4734 8.24478C12.5342 8.23874 12.5932 8.22066 12.6469 8.19159C12.7007 8.16253 12.7482 8.12307 12.7865 8.0755L14.022 6.59107L15.2576 8.0755C15.2959 8.12307 15.3434 8.16253 15.3971 8.19159C15.4509 8.22066 15.5099 8.23874 15.5707 8.24478C15.6315 8.25082 15.693 8.2447 15.7514 8.22678C15.8098 8.20886 15.8641 8.17949 15.9111 8.1404C15.958 8.1013 15.9968 8.05325 16.025 7.99905C16.0532 7.94484 16.0704 7.88557 16.0755 7.82467C16.0806 7.76377 16.0735 7.70246 16.0547 7.64431C16.0359 7.58617 16.0057 7.53235 15.9659 7.48599L14.3762 5.57606C14.3318 5.52271 14.2759 5.48009 14.2127 5.45136C14.1495 5.42264 14.0806 5.40857 14.0112 5.41019V5.41019Z" fill="black"/>
</svg>
