<svg width="22" height="22" viewBox="0 0 22 22" fill="none" xmlns="http://www.w3.org/2000/svg">
<path d="M11 21C16.5228 21 21 16.5228 21 11C21 5.47715 16.5228 1 11 1C5.47715 1 1 5.47715 1 11C1 16.5228 5.47715 21 11 21Z" fill="#FCEA2B"/>
<path d="M17.3457 13.4522C17.3509 14.1216 17.2223 14.7853 16.9674 15.4044C11.537 16.7217 5.91087 15.5522 5.01522 15.3478C4.77226 14.7456 4.6497 14.1016 4.65435 13.4522H4.70217C4.70217 13.4522 11.137 15.013 17.263 13.4826L17.3457 13.4522Z" fill="white"/>
<path d="M16.9674 15.4044C16.1892 17.2609 14.2066 18.5478 11.0153 18.5478C7.79352 18.5478 5.78482 17.2304 5.01526 15.3478C5.91091 15.5522 11.537 16.7218 16.9674 15.4044Z" fill="#EA5A47"/>
<path d="M11 21C16.5228 21 21 16.5228 21 11C21 5.47715 16.5228 1 11 1C5.47715 1 1 5.47715 1 11C1 16.5228 5.47715 21 11 21Z" stroke="black" stroke-linecap="round" stroke-linejoin="round" fill="transparent"/>
<path d="M17.3457 13.4522C17.3509 14.1216 17.2223 14.7853 16.9674 15.4044C11.537 16.7217 5.91087 15.5522 5.01522 15.3478C4.77226 14.7456 4.6497 14.1016 4.65435 13.4522H4.70217C4.70217 13.4522 11.137 15.013 17.263 13.4826L17.3457 13.4522Z" stroke="black" stroke-linecap="round" stroke-linejoin="round" fill="transparent"/>
<path d="M16.9674 15.4044C16.1892 17.2609 14.2066 18.5478 11.0153 18.5478C7.79352 18.5478 5.78482 17.2304 5.01526 15.3478C5.91091 15.5522 11.537 16.7218 16.9674 15.4044Z" stroke="black" stroke-linecap="round" stroke-linejoin="round" fill="transparent"/>
<path d="M8.3913 8.82608C8.3913 9.54642 7.80661 10.1304 7.08696 10.1304C6.36726 10.1304 5.78261 9.54638 5.78261 8.82608C5.78261 8.10642 6.36726 7.52173 7.08696 7.52173C7.80661 7.52173 8.3913 8.10642 8.3913 8.82608Z" fill="black"/>
<path d="M16.2174 8.82608C16.2174 9.54642 15.6327 10.1304 14.913 10.1304C14.1933 10.1304 13.6087 9.54638 13.6087 8.82608C13.6087 8.10642 14.1933 7.52173 14.913 7.52173C15.6327 7.52173 16.2174 8.10642 16.2174 8.82608Z" fill="black"/>
</svg>
